<svg width="23" height="22" viewBox="0 0 23 22" fill="none" xmlns="http://www.w3.org/2000/svg">
<path d="M10.6543 0.524134C11.0015 -0.174691 11.9984 -0.17469 12.3456 0.524135L15.1813 6.23142C15.3188 6.50815 15.583 6.7001 15.8886 6.74535L22.1929 7.6786C22.9648 7.79287 23.2728 8.74097 22.7155 9.28714L18.1638 13.7477C17.9431 13.964 17.8422 14.2745 17.8936 14.5792L18.9542 20.8633C19.084 21.6328 18.2775 22.2187 17.5859 21.8574L11.9371 18.9069C11.6632 18.7639 11.3366 18.7639 11.0627 18.9069L5.41398 21.8574C4.72232 22.2187 3.91582 21.6328 4.04568 20.8633L5.10622 14.5792C5.15764 14.2745 5.05673 13.964 4.83602 13.7477L0.284351 9.28714C-0.272976 8.74097 0.0350802 7.79287 0.806997 7.6786L7.11122 6.74535C7.4169 6.7001 7.6811 6.50815 7.81859 6.23141L10.6543 0.524134Z" fill="#FEA500"/>
</svg>
